<svg xmlns="http://www.w3.org/2000/svg" width="16.384" height="16.384" viewBox="0 0 256 256">
  <defs>
    <style>
      .cls-1 {
        fill: #475569;
      }

      .cls-2 {
        fill: #60a5fa;
      }

      .cls-2, .cls-3 {
        fill-rule: evenodd;
      }

      .cls-3 {
        fill: #f87171;
      }
    </style>
  </defs>
  <rect class="cls-1" width="256" height="256" rx="64" ry="64"/>
  <path id="X" class="cls-2" d="M116.384,49.167q4.35-4.608,4.352-7.68,0-3.84-4.992-8.32t-8.448-4.48q-3.072,0-7.68,5.12L75.3,61.711l-24.32-27.9q-4.482-5.118-7.68-5.12-3.585,0-8.448,4.48-5.121,4.608-5.12,8.32,0,2.946,4.48,7.68L59.936,77.455,34.208,105.743q-4.482,4.992-4.48,7.68,0,3.714,5.12,8.32,4.992,4.482,8.448,4.48,3.072,0,7.68-5.12L75.3,93.2l24.32,27.9q4.479,5.121,7.68,5.12,3.582,0,8.448-4.48,4.992-4.479,4.992-8.192,0-2.943-4.352-7.808L90.656,77.455Z"/>
  <path id="O" class="cls-3" d="M163.85,132.023A50.96,50.96,0,0,0,148.21,142.5a49.034,49.034,0,0,0-10.88,16.524,54.769,54.769,0,0,0-4.08,21.148A49.454,49.454,0,0,0,147.734,215.8q14.484,14.963,35.564,14.96,20.263,0,34.408-15.164a50.957,50.957,0,0,0,14.144-35.972q0-22.3-14.824-36.856t-34.952-14.552A45.652,45.652,0,0,0,163.85,132.023Zm1.292,67.116q-7.822-7.548-7.82-19.516,0-12.24,7.752-19.788t17.544-7.548q9.517,0,17.34,7.48t7.82,19.72q0,12.515-7.752,19.856t-17.544,7.344Q172.962,206.687,165.142,199.139Z"/>
</svg>
